<svg xmlns="http://www.w3.org/2000/svg" width="1400" height="900" viewBox="0 0 1400 900">
  <defs>
    <filter id="halftone">
      <feTurbulence type="fractalNoise" baseFrequency="0.8" numOctaves="2" stitchTiles="stitch"/>
      <feColorMatrix type="matrix" values="
        1 0 0 0 0
        0 1 0 0 0
        0 0 1 0 0
        0 0 0 .35 0"/>
    </filter>
  </defs>
  <rect width="1400" height="900" fill="#F6F0E6"/>

  <!-- faux b&w furniture photo block -->
  <rect x="170" y="140" width="620" height="520" fill="#2A2A2A" opacity="0.18"/>
  <rect x="170" y="140" width="620" height="520" filter="url(#halftone)" opacity="0.22"/>

  <!-- white line overlay -->
  <g stroke="#F6F0E6" stroke-width="2" fill="none" opacity="0.9">
    <path d="M260 570 C310 420 420 320 560 300 C660 288 720 350 760 440"/>
    <path d="M240 360 L760 360"/>
    <path d="M320 250 L320 640"/>
  </g>

  <!-- elevation marks -->
  <g stroke="#111" stroke-width="2" opacity="0.65">
    <line x1="860" y1="220" x2="1240" y2="220"/>
    <line x1="860" y1="260" x2="1160" y2="260"/>
    <line x1="860" y1="300" x2="1200" y2="300"/>
  </g>

  <!-- rainbow swatches at base -->
  <g>
    <rect x="170" y="700" width="120" height="14" fill="#D97843"/>
    <rect x="300" y="700" width="120" height="14" fill="#E8A7A0"/>
    <rect x="430" y="700" width="120" height="14" fill="#A7C6D9"/>
    <rect x="560" y="700" width="120" height="14" fill="#111"/>
  </g>

  <text x="860" y="360" font-family="ui-monospace, SFMono-Regular, Menlo, monospace" font-size="12" fill="#2A2A2A" opacity="0.7">ELEVATION NOTES</text>
  <text x="860" y="384" font-family="ui-monospace, SFMono-Regular, Menlo, monospace" font-size="12" fill="#2A2A2A" opacity="0.55">HALFTONE · OVERLAY · SWATCHES</text>

  <text x="160" y="840" font-family="ui-monospace, SFMono-Regular, Menlo, monospace" font-size="14" fill="#303030">MODERNIST SCRAPBOOK</text>
  <text x="160" y="864" font-family="ui-monospace, SFMono-Regular, Menlo, monospace" font-size="12" fill="#6A6A6A">halftone block · white line overlay · swatches · elevation marks</text>
</svg>

